<svg width="27" height="26" viewBox="0 0 27 26" fill="none" xmlns="http://www.w3.org/2000/svg">
<path d="M11.8786 17.8669C13.3918 17.8669 14.7873 17.3822 15.929 16.5744L20.2241 20.8288C20.4234 21.0263 20.6862 21.125 20.9671 21.125C21.5561 21.125 21.9729 20.6762 21.9729 20.1018C21.9729 19.8325 21.8823 19.5722 21.6829 19.3837L17.415 15.1473C18.3121 13.9805 18.8467 12.5354 18.8467 10.9647C18.8467 7.16804 15.7115 4.0625 11.8786 4.0625C8.05468 4.0625 4.9104 7.15906 4.9104 10.9647C4.9104 14.7613 8.04562 17.8669 11.8786 17.8669ZM11.8786 16.3769C8.88833 16.3769 6.41458 13.9266 6.41458 10.9647C6.41458 8.00276 8.88833 5.55244 11.8786 5.55244C14.8688 5.55244 17.3426 8.00276 17.3426 10.9647C17.3426 13.9266 14.8688 16.3769 11.8786 16.3769Z" fill="currentColor"/>
</svg>
