<svg width="32" height="32" viewBox="0 0 32 32" fill="none" xmlns="http://www.w3.org/2000/svg">
<path fill-rule="evenodd" clip-rule="evenodd" d="M21.3508 20.123C22.9482 18.9211 24.2246 17.472 24.9828 16.5135L24.9865 16.5087L24.9866 16.5087C25.1034 16.3631 25.1667 16.1841 25.1667 16C25.1667 15.8159 25.1034 15.6369 24.9866 15.4913L24.9827 15.4865L24.9828 15.4865C24.2246 14.528 22.9482 13.0789 21.3508 11.877C19.7431 10.6673 17.9034 9.77778 15.9998 9.77778C14.0963 9.77778 12.2566 10.6673 10.6489 11.877C9.05156 13.0789 7.77524 14.5278 7.01702 15.4864C6.77231 15.7959 6.77176 16.2029 7.01746 16.5142C7.77572 17.4727 9.05186 18.9213 10.6489 20.123C12.2566 21.3327 14.0963 22.2222 15.9998 22.2222C17.9034 22.2222 19.7431 21.3327 21.3508 20.123ZM22.4747 21.5275C20.7155 22.8512 18.483 24 15.9998 24C13.5167 24 11.2842 22.8512 9.52501 21.5275C7.75551 20.1961 6.37013 18.6168 5.56223 17.5955L5.56169 17.5948C4.81298 16.6463 4.81242 15.3528 5.56213 14.4047L5.56223 14.4045C6.37013 13.3831 7.75551 11.8039 9.52501 10.4725C11.2842 9.14878 13.5167 8 15.9998 8C18.483 8 20.7155 9.14879 22.4747 10.4725C24.2429 11.8029 25.6276 13.3809 26.4357 14.4023C26.8014 14.8594 27 15.4214 27 16C27 16.5786 26.8014 17.1406 26.4357 17.5976C25.6276 18.6191 24.2429 20.1971 22.4747 21.5275Z" fill="currentColor" />
<path fill-rule="evenodd" clip-rule="evenodd" d="M16 18C17.1046 18 18 17.1046 18 16C18 14.8954 17.1046 14 16 14C14.8954 14 14 14.8954 14 16C14 17.1046 14.8954 18 16 18ZM20 16C20 18.2091 18.2091 20 16 20C13.7909 20 12 18.2091 12 16C12 13.7909 13.7909 12 16 12C18.2091 12 20 13.7909 20 16Z" fill="currentColor" />
</svg>
