<svg width="32" height="32" viewBox="0 0 32 32" fill="none" xmlns="http://www.w3.org/2000/svg">
<path fill-rule="evenodd" clip-rule="evenodd" d="M21.0237 19.9602C22.5347 18.7862 23.7441 17.369 24.4635 16.4299L24.4676 16.4246L24.4676 16.4246C24.562 16.303 24.6133 16.1534 24.6133 15.9995C24.6133 15.8456 24.562 15.696 24.4676 15.5744L24.4638 15.5695L24.4638 15.5695C23.6663 14.5293 22.2769 12.9136 20.5484 11.6864C20.0981 11.3666 19.9922 10.7424 20.312 10.2921C20.6317 9.84175 21.256 9.73589 21.7063 10.0556C23.6665 11.4475 25.1964 13.2383 26.0492 14.3503C26.4148 14.8223 26.6133 15.4024 26.6133 15.9995C26.6133 16.5965 26.4149 17.1765 26.0494 17.6485C25.2756 18.6584 23.9481 20.2208 22.2508 21.5396C20.5633 22.8506 18.4079 24 16.0004 24C13.838 24 11.8822 23.0729 10.2907 21.9409C9.84067 21.6207 9.73536 20.9964 10.0555 20.5464C10.3756 20.0963 11 19.991 11.45 20.3111C12.8586 21.3131 14.4107 22 16.0004 22C17.7748 22 19.5014 21.1429 21.0237 19.9602Z" fill="currentColor" />
<path fill-rule="evenodd" clip-rule="evenodd" d="M7.29289 24.7071C6.90237 24.3166 6.90237 23.6834 7.29289 23.2929L13.0614 17.5244C13.0932 17.4808 13.129 17.4392 13.1688 17.4001C13.2044 17.365 13.2421 17.3331 13.2813 17.3045L17.3072 13.2786C17.3352 13.2406 17.3662 13.2042 17.4002 13.1696C17.4382 13.131 17.4785 13.0962 17.5207 13.0651L23.2929 7.29289C23.6834 6.90237 24.3166 6.90237 24.7071 7.29289C25.0976 7.68342 25.0976 8.31658 24.7071 8.70711L19.4478 13.9664C19.5411 14.1236 19.6238 14.2873 19.6951 14.4564C19.9 14.943 20.0067 15.4654 20.0087 15.9935C20.0108 16.5215 19.9084 17.0447 19.7072 17.5329C19.5061 18.0211 19.2103 18.4647 18.8369 18.838C18.4634 19.2114 18.0198 19.5071 17.5315 19.7081C17.0433 19.9091 16.52 20.0115 15.992 20.0092C15.464 20.007 14.9416 19.9003 14.4551 19.6952C14.2862 19.624 14.1228 19.5415 13.9659 19.4483L8.70711 24.7071C8.31658 25.0976 7.68342 25.0976 7.29289 24.7071ZM15.4769 17.9373C15.6471 17.9842 15.8231 18.0085 16.0004 18.0093C16.2644 18.0104 16.526 17.9592 16.7702 17.8587C17.0143 17.7582 17.2361 17.6103 17.4228 17.4237C17.6095 17.237 17.7574 17.0152 17.858 16.7711C17.9586 16.527 18.0098 16.2654 18.0088 16.0014C18.0081 15.8239 17.9837 15.6478 17.9368 15.4774L15.4769 17.9373ZM9.12382 19.7202C8.72608 20.1033 8.09303 20.0915 7.70985 19.6938C7.08605 19.0463 6.49922 18.3642 5.95216 17.6507C5.5864 17.1788 5.38774 16.5988 5.38745 16.0017C5.38716 15.4043 5.58539 14.8239 5.95091 14.3516C6.72473 13.3417 8.05218 11.7792 9.7496 10.4604C11.437 9.14942 13.5925 8 16 8L16.0046 8.00001C16.777 8.00353 17.545 8.11719 18.2853 8.33756C18.8146 8.49512 19.116 9.05196 18.9584 9.58129C18.8009 10.1106 18.244 10.412 17.7147 10.2544C17.1574 10.0885 16.5792 10.0029 15.9978 10C14.2241 10.0007 12.4983 10.8576 10.9766 12.0398C9.46561 13.2138 8.25628 14.631 7.53685 15.5701L7.53311 15.575C7.43863 15.6968 7.38738 15.8465 7.38745 16.0007C7.38753 16.1548 7.43892 16.3046 7.53352 16.4263L7.53767 16.4316L7.53765 16.4316C8.03949 17.0863 8.57784 17.7121 9.15016 18.3062C9.53334 18.7039 9.52154 19.337 9.12382 19.7202Z" fill="currentColor" />
</svg>
